<?xml version="1.0" encoding="UTF-8"?>
<svg xmlns="http://www.w3.org/2000/svg" xmlns:xlink="http://www.w3.org/1999/xlink" width="200px" height="243px" viewBox="0 0 200 242" version="1.1">
<g id="surface1">
<path style=" stroke:none;fill-rule:nonzero;fill:rgb(0%,0%,0%);fill-opacity:1;" d="M 96.109375 10.046875 C 91.851562 13 85.554688 16.804688 82.59375 18.171875 C 75.445312 21.496094 67.519531 24.082031 62.371094 24.785156 C 57 25.484375 49.296875 24.785156 43.703125 23.085938 C 42.59375 22.753906 41 22.308594 40.222656 22.125 C 38.183594 21.605469 33.480469 19.648438 31.332031 18.394531 C 30.332031 17.804688 29.332031 17.359375 29.109375 17.433594 C 28.742188 17.542969 23.148438 23.566406 20.925781 26.261719 C 20.519531 26.777344 19.40625 28.070312 18.480469 29.179688 C 17.554688 30.285156 16.554688 31.578125 16.257812 32.023438 C 15.925781 32.464844 14.296875 34.351562 12.59375 36.234375 C 8.445312 40.738281 0.742188 49.972656 0.742188 50.417969 C 0.742188 50.601562 1.628906 51.710938 2.703125 52.855469 C 10.890625 61.535156 15.074219 67.589844 18.074219 75.164062 C 19.257812 78.191406 19.40625 78.929688 19.554688 83.03125 C 19.777344 88.941406 18.964844 94.589844 16.667969 103.417969 C 14.59375 111.359375 14.148438 112.691406 10.667969 122.070312 C 5.59375 135.625 4.109375 141.460938 3.371094 151.214844 C 2.332031 163.992188 6.183594 177.769531 13.222656 186.484375 C 14.890625 188.554688 20.148438 193.207031 22.964844 195.128906 C 23.890625 195.757812 24.703125 196.386719 24.816406 196.496094 C 25.222656 197.011719 30.742188 200.523438 33.890625 202.292969 C 36.925781 203.992188 49.445312 210.160156 49.816406 210.160156 C 49.890625 210.160156 51.519531 210.902344 53.371094 211.824219 C 55.257812 212.746094 59.074219 214.519531 61.816406 215.738281 C 64.59375 216.996094 68.40625 218.730469 70.296875 219.617188 C 72.222656 220.503906 73.851562 221.242188 73.964844 221.242188 C 74.035156 221.242188 76.183594 222.203125 78.667969 223.421875 C 85.445312 226.671875 91.40625 230.699219 95.40625 234.796875 C 97.257812 236.679688 98.925781 238.234375 99.074219 238.234375 C 99.257812 238.234375 100.742188 236.867188 102.40625 235.167969 C 104.035156 233.46875 106.371094 231.4375 107.59375 230.585938 C 109.703125 229.183594 117.667969 224.566406 118 224.566406 C 118.074219 224.566406 119.183594 224.085938 120.480469 223.457031 C 121.742188 222.867188 124.851562 221.464844 127.40625 220.355469 C 135.257812 216.996094 145.925781 212.15625 149.554688 210.382812 C 151.40625 209.460938 153.035156 208.683594 153.109375 208.683594 C 153.40625 208.683594 163.371094 203.699219 165.371094 202.589844 C 168.628906 200.742188 176.445312 195.5 177.816406 194.207031 C 178.554688 193.539062 179.890625 192.394531 180.777344 191.695312 C 181.667969 190.992188 183.628906 189.183594 185.109375 187.632812 C 187.332031 185.339844 188.183594 184.085938 190 180.429688 C 193.742188 172.894531 195.371094 166.46875 195.816406 157.675781 C 196.257812 148.296875 193.777344 135.738281 189.257812 124.472656 C 188.816406 123.363281 188.222656 121.703125 187.964844 120.777344 C 187.703125 119.855469 186.480469 116.050781 185.257812 112.285156 C 182.816406 104.785156 181.445312 99.28125 180.59375 93.632812 C 179.257812 84.433594 179.445312 81.332031 181.703125 75.644531 C 183.148438 71.988281 187.667969 64.15625 188.890625 63.160156 C 189.035156 63.046875 189.816406 62.015625 190.703125 60.832031 C 191.554688 59.652344 193.851562 57.066406 195.777344 55.070312 C 197.667969 53.074219 199.257812 51.191406 199.257812 50.898438 C 199.257812 50.601562 197 47.71875 194.222656 44.46875 C 187.480469 36.566406 187 36.011719 182.40625 30.472656 C 180.183594 27.8125 177.371094 24.488281 176.109375 23.085938 C 174.851562 21.644531 173.371094 19.871094 172.816406 19.09375 C 172.222656 18.355469 171.554688 17.730469 171.296875 17.730469 C 171.035156 17.730469 169.257812 18.46875 167.371094 19.355469 C 164.148438 20.867188 160.109375 22.308594 155.183594 23.75 C 150.480469 25.117188 141.332031 25.597656 136.257812 24.785156 C 127.035156 23.269531 113.148438 16.804688 103.074219 9.34375 C 101.628906 8.273438 100.296875 7.386719 100.109375 7.425781 C 99.964844 7.425781 98.148438 8.605469 96.109375 10.046875 Z M 108.890625 20.054688 C 121.074219 26.628906 129.480469 29.808594 137.59375 30.839844 C 146.742188 32.023438 158.332031 29.953125 167.890625 25.484375 C 168.851562 25.042969 169.890625 24.746094 170.183594 24.859375 C 170.480469 25.003906 171.628906 26.296875 172.703125 27.773438 C 173.816406 29.253906 175.109375 30.914062 175.59375 31.433594 C 176.074219 31.984375 177.257812 33.316406 178.222656 34.386719 C 179.183594 35.496094 180.554688 37.046875 181.296875 37.859375 C 182.035156 38.671875 183.40625 40.332031 184.371094 41.550781 C 185.296875 42.769531 186.296875 43.917969 186.554688 44.0625 C 186.816406 44.210938 187.035156 44.617188 187.035156 44.875 C 187.035156 45.171875 187.183594 45.429688 187.332031 45.429688 C 187.703125 45.429688 191.480469 50.085938 191.480469 50.492188 C 191.480469 50.636719 190.371094 52.003906 189.035156 53.519531 C 187.703125 54.996094 186.222656 56.84375 185.703125 57.582031 C 185.222656 58.320312 184.445312 59.429688 184 60.058594 C 175.925781 71.210938 173.703125 77.195312 174.222656 86.796875 C 174.667969 95.996094 175.222656 99.28125 177.964844 108.960938 C 179.109375 113.023438 181.890625 121.109375 184.257812 127.242188 C 186.332031 132.5625 188.148438 138.765625 188.148438 140.390625 C 188.148438 140.796875 188.480469 142.164062 188.851562 143.417969 C 189.445312 145.265625 189.59375 147.222656 189.742188 153.613281 C 189.851562 158.195312 189.777344 162 189.554688 162.664062 C 189.371094 163.289062 189.074219 164.730469 188.890625 165.839844 C 188.148438 170.679688 186.554688 174.667969 183.554688 179.320312 C 181.371094 182.644531 176 188.074219 173 190.03125 C 171.890625 190.734375 170.890625 191.4375 170.777344 191.582031 C 170.519531 191.914062 169.964844 192.285156 166.667969 194.132812 C 165.332031 194.871094 164 195.683594 163.703125 195.941406 C 162.519531 196.9375 152.480469 202.074219 145.742188 205.175781 C 145.148438 205.433594 143.703125 206.097656 142.554688 206.617188 C 141.40625 207.132812 140.222656 207.578125 139.964844 207.578125 C 139.667969 207.578125 139.257812 207.722656 139.035156 207.871094 C 138.851562 208.054688 137.296875 208.796875 135.554688 209.535156 C 132.628906 210.753906 131 211.492188 122.035156 215.703125 C 117.40625 217.84375 108.667969 222.203125 106.59375 223.382812 C 104.777344 224.457031 102.925781 225.824219 100.667969 227.855469 L 99.257812 229.074219 L 97.554688 227.667969 C 95.035156 225.527344 90.851562 222.644531 89.371094 222.019531 C 88.964844 221.796875 88.480469 221.464844 88.332031 221.28125 C 88.222656 221.058594 87.851562 220.871094 87.554688 220.871094 C 87.257812 220.871094 86.40625 220.464844 85.628906 220.023438 C 83.851562 218.878906 79.257812 216.550781 74.628906 214.371094 C 64.816406 209.792969 61.074219 208.09375 59.816406 207.578125 C 59.40625 207.429688 57.964844 206.765625 56.628906 206.136719 C 55.257812 205.507812 54.035156 204.992188 53.890625 204.992188 C 53.257812 204.992188 45.445312 201.148438 40.074219 198.230469 C 38 197.050781 36.148438 196.125 36.035156 196.125 C 35.925781 196.125 35.257812 195.71875 34.59375 195.203125 C 33.925781 194.6875 33.222656 194.28125 33 194.28125 C 32.777344 194.28125 32.59375 194.09375 32.59375 193.910156 C 32.59375 193.6875 32.371094 193.539062 32.148438 193.539062 C 31.035156 193.503906 21.777344 186.449219 19.074219 183.53125 C 16.964844 181.203125 14.59375 177.917969 13.742188 175.996094 C 13.480469 175.367188 13.109375 174.59375 12.925781 174.222656 C 11.816406 172.117188 10.222656 165.765625 9.59375 161.113281 C 8.777344 154.832031 9.519531 145.820312 11.480469 138.433594 C 13.667969 130.195312 14.109375 128.71875 14.445312 128.386719 C 14.667969 128.164062 14.816406 127.539062 14.816406 126.984375 C 14.816406 126.429688 14.964844 125.949219 15.148438 125.949219 C 15.296875 125.949219 15.816406 124.914062 16.257812 123.621094 C 21.074219 110.105469 22.816406 104.195312 24.480469 95.664062 C 25.148438 92.265625 25.332031 90.085938 25.332031 84.765625 C 25.371094 78.375 25.332031 78.007812 24.296875 74.980469 C 22.742188 70.324219 21.296875 67.664062 16.371094 60.019531 C 14.816406 57.617188 11.851562 53.886719 10.074219 52.003906 C 8.109375 49.972656 8.148438 49.789062 10.742188 47.019531 C 12.296875 45.394531 14.40625 42.84375 17.222656 39.300781 C 18.667969 37.488281 20.59375 35.308594 22.222656 33.609375 C 22.925781 32.910156 24.890625 30.582031 26.59375 28.515625 C 28.296875 26.445312 29.851562 24.671875 30.035156 24.523438 C 30.222656 24.414062 31.332031 24.785156 32.480469 25.300781 C 35.371094 26.667969 42.777344 29.03125 47.222656 29.992188 C 51.667969 30.953125 61.703125 31.136719 65.371094 30.359375 C 74.816406 28.328125 90.480469 21.3125 98.628906 15.476562 L 100 14.480469 L 103.257812 16.621094 C 105.035156 17.765625 107.554688 19.316406 108.890625 20.054688 Z M 108.890625 20.054688 "/>
<path style=" stroke:none;fill-rule:nonzero;fill:rgb(0%,0%,0%);fill-opacity:1;" d="M 94.628906 23.859375 C 82.480469 30.730469 73.222656 34.421875 65 35.679688 C 60.628906 36.34375 52.480469 36.308594 48.40625 35.640625 C 44.703125 35.050781 42.816406 34.535156 36.183594 32.390625 L 31.445312 30.878906 L 30.445312 31.949219 C 29.890625 32.578125 28.964844 33.648438 28.371094 34.351562 C 27.777344 35.050781 26.554688 36.492188 25.59375 37.527344 C 21.816406 41.699219 19.035156 44.875 17.816406 46.5 C 17.074219 47.425781 16.222656 48.53125 15.851562 48.902344 C 15.332031 49.457031 15.296875 49.75 15.628906 50.378906 C 15.851562 50.824219 16.257812 51.304688 16.480469 51.523438 C 18.109375 52.890625 24.890625 63.160156 26.890625 67.222656 C 30.148438 73.90625 30.851562 77.859375 30.371094 86.984375 C 29.925781 94.777344 29.59375 97.65625 28.703125 101.203125 C 27.40625 106.300781 27.074219 108.035156 27.371094 108.332031 C 27.628906 108.589844 33.296875 105.894531 34.628906 104.894531 C 34.851562 104.75 36.257812 103.972656 37.777344 103.160156 C 39.296875 102.3125 42.40625 100.613281 44.703125 99.320312 C 46.964844 98.027344 51.148438 95.699219 53.964844 94.183594 C 60.628906 90.566406 64.257812 88.609375 68.296875 86.390625 C 70.109375 85.394531 71.667969 84.582031 71.777344 84.582031 C 71.890625 84.582031 72.257812 84.359375 72.554688 84.066406 C 72.890625 83.769531 75.816406 82.179688 79.035156 80.519531 C 82.296875 78.855469 85.183594 77.269531 85.445312 76.972656 C 85.742188 76.675781 86.109375 76.457031 86.296875 76.457031 C 86.480469 76.457031 88.035156 75.605469 89.777344 74.609375 C 91.519531 73.574219 93 72.761719 93.148438 72.761719 C 93.257812 72.761719 94 72.355469 94.816406 71.839844 C 95.59375 71.359375 98.035156 69.992188 100.257812 68.847656 C 102.445312 67.664062 104.332031 66.632812 104.445312 66.484375 C 104.554688 66.371094 107.035156 65.042969 110 63.566406 C 112.964844 62.050781 115.445312 60.683594 115.480469 60.535156 C 115.554688 60.351562 115.777344 60.203125 115.964844 60.203125 C 116.148438 60.203125 117.332031 59.578125 118.628906 58.765625 C 119.925781 57.988281 122.742188 56.4375 124.851562 55.292969 C 126.964844 54.183594 130.183594 52.484375 132 51.488281 C 133.777344 50.492188 136.59375 48.976562 138.222656 48.125 C 139.851562 47.277344 141.964844 46.132812 142.890625 45.578125 C 148.851562 42.179688 152.371094 40.257812 152.628906 40.257812 C 152.816406 40.257812 152.964844 40.074219 152.964844 39.890625 C 152.964844 39.667969 153.183594 39.519531 153.445312 39.519531 C 153.742188 39.519531 155.257812 38.78125 156.890625 37.859375 C 158.480469 36.933594 159.964844 36.195312 160.148438 36.195312 C 160.332031 36.195312 160.777344 35.976562 161.074219 35.679688 C 161.40625 35.382812 162.703125 34.609375 164 33.980469 C 165.257812 33.351562 166.296875 32.6875 166.296875 32.464844 C 166.296875 32.246094 166.074219 32.132812 165.851562 32.207031 C 165.074219 32.390625 160.964844 33.683594 160.371094 33.90625 C 159.519531 34.203125 155.964844 35.089844 153.890625 35.496094 C 152.890625 35.679688 149.554688 36.050781 146.554688 36.269531 C 141.816406 36.640625 140.445312 36.640625 136.519531 36.085938 C 134.035156 35.753906 131.183594 35.199219 130.148438 34.902344 C 129.148438 34.570312 127.257812 33.980469 125.925781 33.574219 C 121.371094 32.171875 114.148438 28.921875 108.703125 25.890625 C 107.480469 25.191406 106.148438 24.449219 105.742188 24.230469 C 105.332031 24.007812 104.742188 23.636719 104.445312 23.378906 C 103.332031 22.566406 100.40625 21.054688 99.925781 21.089844 C 99.667969 21.128906 97.296875 22.347656 94.628906 23.859375 Z M 94.628906 23.859375 "/>
<path style=" stroke:none;fill-rule:nonzero;fill:rgb(0%,0%,0%);fill-opacity:1;" d="M 153.074219 44.136719 C 151.222656 44.914062 150.59375 46.539062 150.851562 49.863281 C 151.332031 57.101562 158.925781 70.214844 163.964844 72.578125 C 167.519531 74.277344 170.519531 70.953125 169.109375 66.925781 C 167.816406 63.34375 165.667969 61.941406 166.148438 65.042969 C 166.480469 66.964844 166.074219 68.332031 165.222656 68.332031 C 164.519531 68.332031 162.445312 66.300781 161.257812 64.378906 C 160.890625 63.824219 160.480469 63.269531 160.332031 63.160156 C 160 62.863281 155.035156 52.78125 154.519531 51.304688 C 154.296875 50.601562 154.074219 49.566406 154.074219 49.011719 C 154.074219 47.351562 154.851562 47.757812 156.628906 50.304688 C 157.964844 52.300781 158.703125 52.523438 159.332031 51.15625 C 159.964844 49.75 159.035156 47.019531 157.332031 45.320312 C 156.59375 44.582031 155.777344 43.953125 155.59375 43.953125 C 155.40625 43.953125 155.035156 43.878906 154.742188 43.769531 C 154.480469 43.695312 153.742188 43.84375 153.074219 44.136719 Z M 153.074219 44.136719 "/>
<path style=" stroke:none;fill-rule:nonzero;fill:rgb(0%,0%,0%);fill-opacity:1;" d="M 137.332031 53.039062 C 135.332031 54.148438 133.703125 55.253906 133.703125 55.441406 C 133.703125 56.363281 134.890625 57.953125 135.628906 58.0625 C 136.519531 58.171875 137.925781 60.648438 144.371094 73.28125 C 146.59375 77.636719 147.074219 78.894531 146.777344 79.375 C 146.296875 80.148438 147.074219 82.253906 147.925781 82.585938 C 148.40625 82.773438 150.554688 81.847656 151.109375 81.21875 C 151.222656 81.109375 151.851562 80.8125 152.519531 80.554688 C 153.851562 80 153.964844 79.523438 153.148438 77.933594 C 152.777344 77.230469 152.257812 76.824219 151.59375 76.75 C 150.742188 76.640625 150.332031 76.085938 148.554688 72.652344 C 146.59375 68.847656 146.519531 68.589844 147.183594 68.21875 C 149.332031 66.851562 149.40625 66.742188 148.703125 65.265625 C 148.332031 64.488281 147.925781 63.789062 147.742188 63.675781 C 147.554688 63.601562 146.777344 63.824219 145.964844 64.265625 C 145.148438 64.671875 144.40625 64.894531 144.332031 64.710938 C 144.257812 64.5625 143.222656 62.640625 142.035156 60.425781 C 140.035156 56.621094 139.925781 56.363281 140.554688 55.882812 C 141.148438 55.476562 141.332031 55.515625 141.964844 56.066406 C 142.332031 56.398438 142.925781 57.175781 143.222656 57.804688 C 143.554688 58.394531 144 59.023438 144.183594 59.171875 C 144.742188 59.503906 145.925781 58.839844 145.925781 58.171875 C 145.925781 57.617188 143.257812 52.335938 142.554688 51.449219 C 141.890625 50.675781 141.109375 50.898438 137.332031 53.039062 Z M 137.332031 53.039062 "/>
<path style=" stroke:none;fill-rule:nonzero;fill:rgb(0%,0%,0%);fill-opacity:1;" d="M 125.925781 59.355469 C 125 59.945312 123.296875 60.871094 122.109375 61.460938 C 120.964844 62.050781 120 62.753906 120 63.011719 C 120 63.308594 119.777344 63.417969 119.445312 63.308594 C 119.148438 63.160156 118.519531 63.308594 118.035156 63.640625 C 117.59375 63.933594 115.890625 64.894531 114.257812 65.746094 C 109.519531 68.257812 109.628906 67.925781 111.925781 72.394531 C 113 74.535156 114.074219 76.308594 114.257812 76.34375 C 114.480469 76.417969 114.964844 76.234375 115.332031 75.976562 C 115.964844 75.53125 115.925781 75.386719 115.035156 73.019531 C 113.445312 68.773438 114.667969 69.957031 117.554688 75.421875 C 123.667969 87.054688 125.480469 90.972656 125.074219 91.671875 C 124.742188 92.152344 124.816406 92.632812 125.296875 93.59375 C 125.628906 94.332031 126.074219 94.921875 126.257812 94.921875 C 126.742188 94.921875 130.851562 92.746094 131.40625 92.191406 C 132.148438 91.453125 130.925781 89.089844 129.703125 88.941406 C 128.890625 88.828125 128.109375 87.535156 123.667969 78.855469 C 120.851562 73.351562 118.554688 68.664062 118.519531 68.402344 C 118.519531 67.40625 119.257812 68.070312 120.445312 69.992188 C 121.332031 71.46875 121.851562 72.023438 122.371094 71.949219 C 123.816406 71.726562 123.816406 70.84375 122.445312 68.402344 C 121.703125 67.113281 121.109375 65.964844 121.109375 65.855469 C 121.109375 65.78125 121.480469 65.746094 121.964844 65.820312 C 122.816406 65.929688 123.222656 66.59375 130.183594 80.261719 C 132.816406 85.394531 133.296875 86.578125 132.964844 87.167969 C 132.667969 87.722656 132.703125 88.164062 133.148438 89.015625 C 133.964844 90.566406 134.519531 90.675781 136.183594 89.640625 C 136.964844 89.160156 138.816406 88.128906 140.296875 87.351562 C 141.964844 86.503906 142.964844 85.726562 142.964844 85.359375 C 142.964844 85.023438 142.148438 83.253906 141.183594 81.441406 C 139.703125 78.636719 139.296875 78.117188 138.519531 78.117188 C 137.257812 78.117188 137.183594 79.003906 138.183594 81.480469 C 138.925781 83.214844 138.964844 83.585938 138.519531 83.878906 C 137.296875 84.65625 136.628906 84.027344 134.445312 79.964844 C 133.222656 77.710938 132.257812 75.71875 132.222656 75.496094 C 132.222656 75.273438 132.816406 74.832031 133.519531 74.5 C 135.035156 73.796875 135.222656 72.726562 134.074219 71.285156 C 133.332031 70.324219 133.40625 70.324219 130.742188 71.433594 C 129.890625 71.765625 126.074219 64.453125 126.703125 63.675781 C 127.445312 62.789062 127.964844 63.085938 129.074219 65.007812 C 129.890625 66.371094 130.371094 66.851562 130.890625 66.777344 C 132.480469 66.519531 132.40625 65.632812 130.480469 62.015625 C 129.445312 60.09375 128.371094 58.503906 128.109375 58.429688 C 127.816406 58.394531 126.851562 58.800781 125.925781 59.355469 Z M 125.925781 59.355469 "/>
<path style=" stroke:none;fill-rule:nonzero;fill:rgb(0%,0%,0%);fill-opacity:1;" d="M 155.257812 70.25 C 154.554688 70.953125 154.742188 72.246094 155.742188 74.238281 C 157.183594 77.082031 159.296875 78.117188 160 76.308594 C 160.445312 75.089844 159.890625 73.242188 158.519531 71.320312 C 157.371094 69.769531 156.148438 69.363281 155.257812 70.25 Z M 155.257812 70.25 "/>
<path style=" stroke:none;fill-rule:nonzero;fill:rgb(0%,0%,0%);fill-opacity:1;" d="M 104.554688 70.988281 C 104.074219 71.210938 103.703125 71.507812 103.703125 71.65625 C 103.703125 71.839844 103.296875 72.023438 102.851562 72.171875 C 102.371094 72.28125 101.519531 72.726562 101 73.132812 C 100.035156 73.90625 100.035156 73.90625 100.628906 75.164062 C 101.035156 76.011719 101.519531 76.457031 102.148438 76.53125 C 102.964844 76.640625 103.703125 77.898438 108.371094 87.167969 C 112.816406 96.03125 113.59375 97.769531 113.183594 98.246094 C 112.777344 98.691406 112.777344 99.023438 113.222656 100.019531 C 113.890625 101.644531 114.445312 101.757812 116.148438 100.796875 C 116.964844 100.351562 118.035156 99.761719 118.59375 99.464844 C 119.109375 99.207031 119.628906 98.726562 119.742188 98.46875 C 120.035156 97.695312 118.628906 95.664062 117.777344 95.664062 C 117.257812 95.664062 116.703125 95.035156 115.851562 93.335938 C 115.183594 92.078125 114.519531 90.714844 114.371094 90.308594 C 114.035156 89.457031 114.519531 90.011719 117.851562 94.109375 C 119.554688 96.214844 120.222656 96.769531 121.296875 96.992188 C 122.667969 97.25 124.445312 96.4375 124.445312 95.550781 C 124.445312 94.703125 122.964844 92.707031 122.332031 92.671875 C 121.964844 92.671875 120.554688 91.230469 119.109375 89.347656 C 117.703125 87.535156 116.222656 85.765625 115.851562 85.429688 C 115.445312 85.0625 115.183594 84.324219 115.183594 83.511719 C 115.183594 79.929688 113.148438 75.238281 110.332031 72.320312 C 108.816406 70.695312 108.519531 70.546875 107 70.582031 C 106.109375 70.582031 105 70.769531 104.554688 70.988281 Z M 110 78.820312 C 111.371094 81.589844 111.890625 83.84375 111.183594 83.84375 C 110.777344 83.84375 106.296875 74.71875 106.554688 74.460938 C 107.035156 73.980469 108.554688 75.902344 110 78.820312 Z M 110 78.820312 "/>
<path style=" stroke:none;fill-rule:nonzero;fill:rgb(0%,0%,0%);fill-opacity:1;" d="M 93.628906 76.714844 C 92.257812 77.5625 91.851562 78.671875 91.851562 81.480469 C 91.851562 85.835938 95.519531 94.703125 99.851562 100.722656 C 103.667969 106.042969 107.554688 107.371094 109.667969 104.082031 C 110.296875 103.050781 110.40625 102.457031 110.257812 100.09375 C 109.742188 92.449219 102.035156 78.636719 97.148438 76.566406 C 95.59375 75.9375 94.851562 75.976562 93.628906 76.714844 Z M 97.222656 81.148438 C 98.742188 82.660156 100.445312 85.429688 102.890625 90.378906 C 106.183594 96.992188 107.296875 100.167969 106.667969 101.203125 C 105.742188 102.71875 103.109375 99.320312 99.148438 91.414062 C 96.628906 86.355469 95.554688 83.398438 95.554688 81.367188 C 95.554688 79.890625 95.890625 79.855469 97.222656 81.148438 Z M 97.222656 81.148438 "/>
<path style=" stroke:none;fill-rule:nonzero;fill:rgb(0%,0%,0%);fill-opacity:1;" d="M 166.480469 78.894531 C 165.445312 79.449219 164.183594 80.1875 163.628906 80.554688 C 163.109375 80.960938 162.59375 81.257812 162.480469 81.257812 C 162.40625 81.257812 161 81.996094 159.40625 82.847656 C 157.777344 83.730469 155.148438 85.171875 153.519531 86.058594 C 151.890625 86.945312 148.925781 88.644531 146.925781 89.828125 C 144.890625 91.007812 143.183594 91.96875 143.074219 91.96875 C 142.964844 91.96875 142.40625 92.339844 141.777344 92.746094 L 140.703125 93.519531 L 140.925781 106.519531 C 141.035156 113.648438 141.296875 137.511719 141.480469 159.523438 C 141.703125 181.722656 142 199.746094 142.183594 199.929688 C 142.371094 200.117188 145.183594 198.898438 148.925781 197.011719 C 152.480469 195.238281 156.183594 193.394531 157.183594 192.914062 C 158.222656 192.394531 159.554688 191.582031 160.183594 191.101562 C 160.851562 190.621094 161.519531 190.214844 161.742188 190.214844 C 162.257812 190.214844 164.371094 189.144531 164.628906 188.738281 C 164.742188 188.589844 165.519531 188.074219 166.371094 187.632812 C 170 185.746094 175.742188 180.539062 178.554688 176.550781 C 180.148438 174.296875 182.964844 168.054688 182.964844 166.726562 C 182.964844 166.429688 183.109375 165.875 183.332031 165.507812 C 183.851562 164.511719 184.074219 162 184.296875 155.238281 C 184.480469 150.511719 184.371094 148.628906 183.890625 146.003906 C 182.667969 139.652344 180.257812 131.527344 178.074219 126.320312 C 177.40625 124.730469 176.035156 120.667969 175.40625 118.378906 C 175.035156 117.160156 174.59375 115.753906 174.40625 115.238281 C 174.222656 114.722656 174 113.980469 173.925781 113.574219 C 173.628906 112.136719 172.148438 106.890625 171.628906 105.449219 C 171.332031 104.636719 170.925781 102.902344 170.742188 101.570312 C 170.554688 100.242188 170.109375 97.324219 169.742188 95.109375 C 169.296875 92.300781 169.074219 89.015625 169.074219 84.472656 C 169.074219 80.296875 168.925781 77.933594 168.703125 77.933594 C 168.480469 77.933594 167.480469 78.375 166.480469 78.894531 Z M 166.480469 78.894531 "/>
<path style=" stroke:none;fill-rule:nonzero;fill:rgb(0%,0%,0%);fill-opacity:1;" d="M 82.183594 83.398438 C 80.667969 84.210938 79.40625 85.136719 79.332031 85.429688 C 79.109375 86.464844 80.332031 88.273438 81.222656 88.273438 C 81.925781 88.273438 82.742188 89.714844 87 98.246094 C 91.554688 107.332031 92 108.40625 92.035156 110.289062 C 92.035156 111.839844 92.222656 112.46875 92.742188 112.835938 C 93.332031 113.28125 93.742188 113.167969 96.074219 111.914062 C 97.519531 111.136719 98.742188 110.25 98.816406 109.917969 C 98.890625 109.625 98.667969 108.847656 98.332031 108.257812 C 97.851562 107.332031 97.59375 107.148438 96.890625 107.332031 C 96.074219 107.519531 95.851562 107.222656 94.296875 104.121094 L 92.628906 100.722656 L 93.519531 99.652344 C 96.667969 95.921875 91.257812 83.253906 86.074219 82.179688 C 85.183594 81.996094 84.371094 82.253906 82.183594 83.398438 Z M 87.332031 88.164062 C 88.964844 90.675781 90.371094 93.925781 90.59375 95.550781 C 90.742188 96.660156 90.296875 95.996094 88.40625 92.339844 C 87.109375 89.789062 85.964844 87.425781 85.816406 87.054688 C 85.332031 85.800781 86.222656 86.464844 87.332031 88.164062 Z M 87.332031 88.164062 "/>
<path style=" stroke:none;fill-rule:nonzero;fill:rgb(0%,0%,0%);fill-opacity:1;" d="M 73.703125 87.832031 C 71.816406 89.714844 72.074219 93.152344 74.480469 98.101562 C 76.183594 101.609375 77.742188 103.160156 81.332031 104.933594 C 83.742188 106.113281 84.703125 106.816406 85.332031 107.8125 C 86.480469 109.660156 87.183594 112.285156 86.703125 112.761719 C 86.148438 113.316406 85.074219 112.246094 83.445312 109.625 C 82 107.296875 81.296875 106.964844 80.742188 108.441406 C 80.035156 110.214844 81.332031 113.574219 83.554688 115.792969 C 85.183594 117.417969 87.148438 117.566406 88.742188 116.199219 C 89.628906 115.460938 89.777344 114.980469 89.925781 112.984375 C 90.257812 107.445312 86.074219 100.242188 81.628906 98.652344 C 79.296875 97.839844 77.222656 96.070312 76.371094 94.074219 C 75.480469 92.152344 75.332031 91.230469 75.890625 91.230469 C 76.332031 91.230469 77.777344 93.003906 78.59375 94.515625 C 79.148438 95.550781 79.332031 95.625 80 95.292969 C 81.109375 94.703125 81.035156 91.671875 79.851562 89.828125 C 78.628906 87.90625 77.703125 87.167969 76.183594 86.910156 C 75.035156 86.722656 74.703125 86.871094 73.703125 87.832031 Z M 73.703125 87.832031 "/>
<path style=" stroke:none;fill-rule:nonzero;fill:rgb(0%,0%,0%);fill-opacity:1;" d="M 65 92.890625 C 62.964844 93.964844 61.148438 95.144531 60.925781 95.441406 C 60.40625 96.253906 61.445312 98.027344 62.480469 98.175781 C 63.148438 98.285156 64.296875 100.316406 68.519531 108.847656 C 73.183594 118.230469 73.703125 119.484375 73.332031 120.222656 C 72.964844 120.890625 73 121.257812 73.480469 122.183594 C 73.816406 122.808594 74.222656 123.4375 74.445312 123.546875 C 75.074219 123.953125 83.332031 119.191406 83.296875 118.414062 C 83.257812 117.492188 79.777344 110.992188 79.257812 110.917969 C 78.964844 110.84375 78.445312 110.953125 78.148438 111.175781 C 77.667969 111.46875 77.703125 111.730469 78.296875 113.28125 C 79.445312 116.273438 79.445312 116.605469 78.296875 117.195312 L 77.222656 117.785156 L 74.890625 113.132812 C 72.742188 108.8125 72.628906 108.441406 73.222656 108 C 75.777344 106.042969 75.667969 106.300781 75.035156 104.824219 C 74.703125 104.082031 74.332031 103.382812 74.148438 103.269531 C 74 103.160156 73.148438 103.492188 72.296875 103.972656 L 70.742188 104.859375 L 68.742188 100.722656 C 67 97.066406 66.816406 96.550781 67.332031 96.105469 C 68.296875 95.367188 68.667969 95.589844 69.964844 97.695312 C 70.628906 98.800781 71.332031 99.726562 71.445312 99.726562 C 71.59375 99.726562 72.035156 99.503906 72.40625 99.207031 C 73.109375 98.726562 73.109375 98.652344 72.40625 97.101562 C 71.332031 94.628906 69.222656 90.859375 68.964844 90.859375 C 68.816406 90.898438 67.035156 91.785156 65 92.890625 Z M 65 92.890625 "/>
<path style=" stroke:none;fill-rule:nonzero;fill:rgb(0%,0%,0%);fill-opacity:1;" d="M 50.554688 100.832031 C 48.777344 101.535156 48.777344 101.867188 50.777344 108.074219 C 51.816406 111.285156 52.890625 114.535156 53.148438 115.238281 C 54.964844 120.078125 57.183594 127.871094 57.222656 129.570312 C 57.257812 130.863281 57.480469 131.710938 57.890625 132.15625 C 58.519531 132.746094 58.628906 132.707031 60.59375 131.675781 C 61.742188 131.046875 62.742188 130.382812 62.851562 130.121094 C 63.109375 129.421875 61.777344 127.464844 60.964844 127.351562 C 60.40625 127.277344 59.925781 126.578125 59.183594 124.839844 C 58.667969 123.511719 58.183594 122.21875 58.183594 121.996094 C 58.148438 121.589844 60.296875 120.1875 60.519531 120.484375 C 60.59375 120.558594 61.257812 121.554688 62 122.773438 C 63.035156 124.359375 63.332031 125.171875 63.148438 125.839844 C 62.890625 126.945312 63.667969 129.273438 64.296875 129.273438 C 65.074219 129.273438 69.332031 126.910156 69.554688 126.390625 C 69.851562 125.617188 68.628906 123.363281 67.890625 123.363281 C 67.109375 123.363281 66.074219 121.921875 57.964844 109.511719 C 54.703125 104.5625 51.890625 100.5 51.667969 100.5 C 51.480469 100.5 50.964844 100.648438 50.554688 100.832031 Z M 56.519531 114.351562 C 57.742188 116.234375 57.964844 117.710938 57 117.378906 C 56.628906 117.269531 54.703125 112.285156 55.035156 112.285156 C 55.109375 112.285156 55.777344 113.207031 56.519531 114.351562 Z M 56.519531 114.351562 "/>
<path style=" stroke:none;fill-rule:nonzero;fill:rgb(0%,0%,0%);fill-opacity:1;" d="M 117.964844 105.894531 C 116.742188 106.59375 115 107.59375 114.074219 108.109375 C 113.148438 108.589844 111.925781 109.292969 111.296875 109.660156 C 110.703125 110.03125 109.257812 110.769531 108.148438 111.324219 C 107.035156 111.914062 105.851562 112.503906 105.554688 112.691406 C 105.257812 112.835938 104.257812 113.355469 103.332031 113.796875 C 102.40625 114.277344 101.183594 115.015625 100.554688 115.460938 C 99.964844 115.902344 98.296875 116.898438 96.851562 117.675781 C 95.445312 118.414062 92 120.371094 89.257812 121.960938 C 86.519531 123.546875 82.964844 125.46875 81.40625 126.207031 C 79.816406 126.945312 78.445312 127.832031 78.332031 128.128906 C 78.109375 128.71875 77.519531 166.0625 77.332031 191.695312 L 77.222656 208.867188 L 81.480469 211.011719 C 83.816406 212.191406 86.148438 213.449219 86.667969 213.78125 C 87.183594 214.113281 88.519531 214.851562 89.628906 215.445312 C 90.742188 216.035156 93.40625 217.660156 95.519531 219.0625 L 99.371094 221.574219 L 100.742188 220.503906 C 101.519531 219.875 102.257812 219.394531 102.371094 219.394531 C 102.480469 219.394531 103.371094 218.839844 104.332031 218.140625 C 105.332031 217.476562 109.480469 215.183594 113.628906 213.117188 L 121.109375 209.347656 L 121.109375 157.492188 C 121.109375 128.976562 121 105.414062 120.890625 105.082031 C 120.59375 104.34375 120.519531 104.34375 117.964844 105.894531 Z M 117.964844 105.894531 "/>
<path style=" stroke:none;fill-rule:nonzero;fill:rgb(0%,0%,0%);fill-opacity:1;" d="M 38.109375 107.480469 C 36.851562 108.554688 36.851562 108.589844 36.851562 111.804688 C 36.851562 115.792969 37.964844 119.339844 41.183594 125.652344 C 43.777344 130.789062 46.074219 134 48.183594 135.550781 C 51.035156 137.582031 54 136.734375 54.851562 133.59375 C 56.519531 127.464844 48.183594 109.699219 42.371094 106.925781 C 40.628906 106.113281 39.519531 106.261719 38.109375 107.480469 Z M 42.296875 111.617188 C 43.371094 112.835938 46.074219 117.160156 46.554688 118.453125 C 46.703125 118.820312 46.890625 119.191406 47.035156 119.300781 C 47.332031 119.558594 49.925781 125.617188 50.777344 128.128906 C 51.59375 130.417969 51.667969 132.082031 51.035156 132.449219 C 50.371094 132.894531 47.777344 129.753906 45.964844 126.28125 C 41.667969 118.082031 39.519531 111.765625 40.628906 110.695312 C 41 110.289062 41.148438 110.363281 42.296875 111.617188 Z M 42.296875 111.617188 "/>
<path style=" stroke:none;fill-rule:nonzero;fill:rgb(0%,0%,0%);fill-opacity:1;" d="M 26.59375 113.945312 C 25.222656 114.648438 23.964844 115.535156 23.777344 115.867188 C 23.296875 116.789062 24.257812 118.929688 25.148438 118.929688 C 25.519531 118.929688 26 119.152344 26.183594 119.375 C 26.703125 120.078125 35.851562 139.355469 35.964844 139.984375 C 36 140.28125 35.925781 140.835938 35.777344 141.167969 C 35.40625 141.980469 35.964844 143.679688 36.742188 144.160156 C 37.148438 144.453125 37.667969 144.34375 38.554688 143.898438 C 43.59375 141.351562 44.257812 140.539062 44.257812 137.289062 C 44.257812 133.484375 41.445312 127.683594 38.777344 125.984375 C 37.554688 125.171875 37.40625 124.914062 37.40625 123.511719 C 37.40625 120.335938 34.742188 115.164062 32.257812 113.503906 C 30.59375 112.355469 29.519531 112.46875 26.59375 113.945312 Z M 31.519531 118.636719 C 32.816406 120.890625 33.667969 123.03125 33.667969 124.066406 C 33.703125 125.433594 33.257812 124.730469 31.371094 120.667969 C 30.332031 118.453125 29.851562 117.085938 30.148438 117.085938 C 30.40625 117.085938 31 117.785156 31.519531 118.636719 Z M 37.628906 130.640625 C 39.777344 134 40.964844 137.730469 40.074219 138.285156 C 39.777344 138.46875 35.554688 129.976562 35.554688 129.238281 C 35.554688 128.351562 36.628906 129.089844 37.628906 130.640625 Z M 37.628906 130.640625 "/>
<path style=" stroke:none;fill-rule:nonzero;fill:rgb(0%,0%,0%);fill-opacity:1;" d="M 55.480469 140.613281 C 55.257812 140.871094 54.890625 141.09375 54.628906 141.09375 C 54.371094 141.09375 53.964844 141.351562 53.703125 141.648438 C 53.445312 141.941406 52.925781 142.199219 52.554688 142.199219 C 52.148438 142.199219 51.851562 142.347656 51.851562 142.535156 C 51.851562 142.71875 51.480469 143.011719 51.035156 143.160156 C 50.332031 143.347656 46.742188 145.339844 43.519531 147.261719 C 43.109375 147.519531 42.519531 147.816406 42.222656 147.960938 C 41.925781 148.109375 40.742188 148.738281 39.628906 149.402344 C 31.371094 154.203125 28.257812 155.867188 27.554688 155.867188 C 27.296875 155.867188 26.925781 156.089844 26.777344 156.347656 C 26.628906 156.605469 25.40625 157.382812 24.074219 158.046875 C 22.742188 158.746094 21.257812 159.558594 20.742188 159.894531 C 20.222656 160.226562 18.851562 161 17.628906 161.59375 C 16.445312 162.183594 15.371094 162.882812 15.296875 163.179688 C 14.816406 164.398438 17.445312 171.675781 19.554688 175.074219 C 21.445312 178.027344 27.816406 184.160156 31.480469 186.523438 C 36.109375 189.476562 36 189.402344 37.296875 189.996094 C 37.964844 190.289062 39.703125 191.25 41.183594 192.101562 C 45.183594 194.425781 55.445312 199.449219 56.222656 199.449219 C 56.445312 199.449219 56.703125 197.417969 56.816406 194.90625 C 57.074219 190.289062 57.777344 152.136719 57.777344 144.34375 L 57.777344 139.984375 L 56.816406 140.058594 C 56.296875 140.132812 55.703125 140.355469 55.480469 140.613281 Z M 55.480469 140.613281 "/>
</g>
</svg>
